<svg xmlns="http://www.w3.org/2000/svg" viewBox="0 0 1240 700" width="1240" height="700" role="img"><style>
:root{
  --bg:#080d17; --panel:#0e1524; --grid:#162034;
  --fg:#e9eff8; --muted:#8ea4c4; --faint:#4a5f80;
  --constraint:#38d8f0; --constraint-dim:#0d5566;
  --emergence:#ffb340;  --emergence-dim:#6b4413;
  --topdown:#b98cff;    --topdown-dim:#3d2a63;
  --resonance:#3ee6b0;  --resonance-dim:#0f5744;
  --forbidden:#ff5f6d;  --forbidden-dim:#5c1f25;
  --history:#f0d9a8;
  --stroke:#243352;
}
@media (prefers-color-scheme: light){
  :root{
    --bg:#ffffff; --panel:#f4f7fc; --grid:#e3eaf5;
    --fg:#0c1526; --muted:#4a5f80; --faint:#9fb0c9;
    --constraint:#0090ad; --constraint-dim:#bfeaf3;
    --emergence:#b26a00;  --emergence-dim:#ffe6bd;
    --topdown:#6c3fd1;    --topdown-dim:#e6dcff;
    --resonance:#00916c;  --resonance-dim:#c7f4e6;
    --forbidden:#c8202f;  --forbidden-dim:#ffd9dc;
    --history:#7a5c22;
    --stroke:#c5d2e6;
  }
}
text{font-family:ui-sans-serif,-apple-system,"Segoe UI",Roboto,Helvetica,Arial,sans-serif;}
.mono{font-family:ui-monospace,"SF Mono",Menlo,Consolas,monospace;}
.t{fill:var(--fg)} .m{fill:var(--muted)} .f{fill:var(--faint)}
.ttl{font-size:30px;font-weight:700;letter-spacing:-.3px}
.sub{font-size:17px}
.lbl{font-size:15px;font-weight:600}
.sm{font-size:13px}
.xs{font-size:11.5px;letter-spacing:.4px}
.cap{font-size:15.5px;font-style:italic}
</style><rect width="1240" height="700" fill="var(--bg)"/><g opacity="0.5"><line x1="0" y1="0" x2="0" y2="700" stroke="var(--grid)" stroke-width="1"/><line x1="40" y1="0" x2="40" y2="700" stroke="var(--grid)" stroke-width="1"/><line x1="80" y1="0" x2="80" y2="700" stroke="var(--grid)" stroke-width="1"/><line x1="120" y1="0" x2="120" y2="700" stroke="var(--grid)" stroke-width="1"/><line x1="160" y1="0" x2="160" y2="700" stroke="var(--grid)" stroke-width="1"/><line x1="200" y1="0" x2="200" y2="700" stroke="var(--grid)" stroke-width="1"/><line x1="240" y1="0" x2="240" y2="700" stroke="var(--grid)" stroke-width="1"/><line x1="280" y1="0" x2="280" y2="700" stroke="var(--grid)" stroke-width="1"/><line x1="320" y1="0" x2="320" y2="700" stroke="var(--grid)" stroke-width="1"/><line x1="360" y1="0" x2="360" y2="700" stroke="var(--grid)" stroke-width="1"/><line x1="400" y1="0" x2="400" y2="700" stroke="var(--grid)" stroke-width="1"/><line x1="440" y1="0" x2="440" y2="700" stroke="var(--grid)" stroke-width="1"/><line x1="480" y1="0" x2="480" y2="700" stroke="var(--grid)" stroke-width="1"/><line x1="520" y1="0" x2="520" y2="700" stroke="var(--grid)" stroke-width="1"/><line x1="560" y1="0" x2="560" y2="700" stroke="var(--grid)" stroke-width="1"/><line x1="600" y1="0" x2="600" y2="700" stroke="var(--grid)" stroke-width="1"/><line x1="640" y1="0" x2="640" y2="700" stroke="var(--grid)" stroke-width="1"/><line x1="680" y1="0" x2="680" y2="700" stroke="var(--grid)" stroke-width="1"/><line x1="720" y1="0" x2="720" y2="700" stroke="var(--grid)" stroke-width="1"/><line x1="760" y1="0" x2="760" y2="700" stroke="var(--grid)" stroke-width="1"/><line x1="800" y1="0" x2="800" y2="700" stroke="var(--grid)" stroke-width="1"/><line x1="840" y1="0" x2="840" y2="700" stroke="var(--grid)" stroke-width="1"/><line x1="880" y1="0" x2="880" y2="700" stroke="var(--grid)" stroke-width="1"/><line x1="920" y1="0" x2="920" y2="700" stroke="var(--grid)" stroke-width="1"/><line x1="960" y1="0" x2="960" y2="700" stroke="var(--grid)" stroke-width="1"/><line x1="1000" y1="0" x2="1000" y2="700" stroke="var(--grid)" stroke-width="1"/><line x1="1040" y1="0" x2="1040" y2="700" stroke="var(--grid)" stroke-width="1"/><line x1="1080" y1="0" x2="1080" y2="700" stroke="var(--grid)" stroke-width="1"/><line x1="1120" y1="0" x2="1120" y2="700" stroke="var(--grid)" stroke-width="1"/><line x1="1160" y1="0" x2="1160" y2="700" stroke="var(--grid)" stroke-width="1"/><line x1="1200" y1="0" x2="1200" y2="700" stroke="var(--grid)" stroke-width="1"/><line x1="0" y1="0" x2="1240" y2="0" stroke="var(--grid)" stroke-width="1"/><line x1="0" y1="40" x2="1240" y2="40" stroke="var(--grid)" stroke-width="1"/><line x1="0" y1="80" x2="1240" y2="80" stroke="var(--grid)" stroke-width="1"/><line x1="0" y1="120" x2="1240" y2="120" stroke="var(--grid)" stroke-width="1"/><line x1="0" y1="160" x2="1240" y2="160" stroke="var(--grid)" stroke-width="1"/><line x1="0" y1="200" x2="1240" y2="200" stroke="var(--grid)" stroke-width="1"/><line x1="0" y1="240" x2="1240" y2="240" stroke="var(--grid)" stroke-width="1"/><line x1="0" y1="280" x2="1240" y2="280" stroke="var(--grid)" stroke-width="1"/><line x1="0" y1="320" x2="1240" y2="320" stroke="var(--grid)" stroke-width="1"/><line x1="0" y1="360" x2="1240" y2="360" stroke="var(--grid)" stroke-width="1"/><line x1="0" y1="400" x2="1240" y2="400" stroke="var(--grid)" stroke-width="1"/><line x1="0" y1="440" x2="1240" y2="440" stroke="var(--grid)" stroke-width="1"/><line x1="0" y1="480" x2="1240" y2="480" stroke="var(--grid)" stroke-width="1"/><line x1="0" y1="520" x2="1240" y2="520" stroke="var(--grid)" stroke-width="1"/><line x1="0" y1="560" x2="1240" y2="560" stroke="var(--grid)" stroke-width="1"/><line x1="0" y1="600" x2="1240" y2="600" stroke="var(--grid)" stroke-width="1"/><line x1="0" y1="640" x2="1240" y2="640" stroke="var(--grid)" stroke-width="1"/><line x1="0" y1="680" x2="1240" y2="680" stroke="var(--grid)" stroke-width="1"/></g><rect x="44" y="38" width="54" height="34" rx="8" fill="none" stroke="var(--constraint)" stroke-width="2"/><text x="71" y="61" class="mono" font-size="17" font-weight="700" fill="var(--constraint)" text-anchor="middle">12</text><text x="114" y="62" class="t ttl">It is falling the entire time</text><text x="114" y="88" class="m sub">New regimes act on accumulated structure, never a fresh nucleus</text><line x1="44" y1="108" x2="1196" y2="108" stroke="var(--stroke)" stroke-width="1.5"/><rect x="80.0" y="170.0" width="700.0" height="96.0" rx="10" fill="var(--constraint)" stroke="none" stroke-width="1.5" opacity="0.1" /><rect x="80.0" y="170.0" width="700.0" height="96.0" rx="10" fill="none" stroke="var(--constraint)" stroke-width="1.8" opacity="1" /><text x="108.0" y="208.0" class="xs" text-anchor="start" opacity="1" fill="var(--constraint)" font-weight="700">REGIME A</text><text x="108.0" y="236.0" class="t sm" text-anchor="start" opacity="1" >plate growth</text><polygon points="620.0,244.0 597.5,231.0 597.5,205.0 620.0,192.0 642.5,205.0 642.5,231.0" fill="var(--constraint)" stroke="var(--constraint)" stroke-width="2" stroke-linejoin="round" opacity="0.3"/><text x="700.0" y="224.0" class="xs" text-anchor="start" opacity="1" fill="var(--muted)">carries everything</text><line x1="430.0" y1="266.0" x2="430.0" y2="288.0" stroke="var(--faint)" stroke-width="2.4" stroke-linecap="round" opacity="1"/><path d="M430.0,288.0 L426.3,279.8 L433.7,279.8 Z" fill="var(--faint)" stroke="none" stroke-width="1.5" stroke-linecap="round" stroke-linejoin="round" opacity="1"/><rect x="80.0" y="288.0" width="700.0" height="96.0" rx="10" fill="var(--emergence)" stroke="none" stroke-width="1.5" opacity="0.1" /><rect x="80.0" y="288.0" width="700.0" height="96.0" rx="10" fill="none" stroke="var(--emergence)" stroke-width="1.8" opacity="1" /><text x="108.0" y="326.0" class="xs" text-anchor="start" opacity="1" fill="var(--emergence)" font-weight="700">REGIME B</text><text x="108.0" y="354.0" class="t sm" text-anchor="start" opacity="1" >column growth</text><polygon points="620.0,362.0 597.5,349.0 597.5,323.0 620.0,310.0 642.5,323.0 642.5,349.0" fill="var(--emergence)" stroke="var(--emergence)" stroke-width="2" stroke-linejoin="round" opacity="0.3"/><rect x="612.0" y="302.0" width="16.0" height="68.0" rx="3" fill="var(--emergence)" stroke="var(--emergence)" stroke-width="1.6" opacity="0.3" /><text x="700.0" y="342.0" class="xs" text-anchor="start" opacity="1" fill="var(--muted)">carries everything</text><line x1="430.0" y1="384.0" x2="430.0" y2="406.0" stroke="var(--faint)" stroke-width="2.4" stroke-linecap="round" opacity="1"/><path d="M430.0,406.0 L426.3,397.8 L433.7,397.8 Z" fill="var(--faint)" stroke="none" stroke-width="1.5" stroke-linecap="round" stroke-linejoin="round" opacity="1"/><rect x="80.0" y="406.0" width="700.0" height="96.0" rx="10" fill="var(--topdown)" stroke="none" stroke-width="1.5" opacity="0.1" /><rect x="80.0" y="406.0" width="700.0" height="96.0" rx="10" fill="none" stroke="var(--topdown)" stroke-width="1.8" opacity="1" /><text x="108.0" y="444.0" class="xs" text-anchor="start" opacity="1" fill="var(--topdown)" font-weight="700">REGIME C</text><text x="108.0" y="472.0" class="t sm" text-anchor="start" opacity="1" >dendritic branching</text><polygon points="620.0,480.0 597.5,467.0 597.5,441.0 620.0,428.0 642.5,441.0 642.5,467.0" fill="var(--topdown)" stroke="var(--topdown)" stroke-width="2" stroke-linejoin="round" opacity="0.3"/><rect x="612.0" y="420.0" width="16.0" height="68.0" rx="3" fill="var(--topdown)" stroke="var(--topdown)" stroke-width="1.6" opacity="0.3" /><line x1="620.0" y1="480.0" x2="620.0" y2="502.0" stroke="var(--topdown)" stroke-width="2.4" stroke-linecap="round" opacity="1"/><line x1="597.5" y1="467.0" x2="578.4" y2="478.0" stroke="var(--topdown)" stroke-width="2.4" stroke-linecap="round" opacity="1"/><line x1="597.5" y1="441.0" x2="578.4" y2="430.0" stroke="var(--topdown)" stroke-width="2.4" stroke-linecap="round" opacity="1"/><line x1="620.0" y1="428.0" x2="620.0" y2="406.0" stroke="var(--topdown)" stroke-width="2.4" stroke-linecap="round" opacity="1"/><line x1="642.5" y1="441.0" x2="661.6" y2="430.0" stroke="var(--topdown)" stroke-width="2.4" stroke-linecap="round" opacity="1"/><line x1="642.5" y1="467.0" x2="661.6" y2="478.0" stroke="var(--topdown)" stroke-width="2.4" stroke-linecap="round" opacity="1"/><text x="700.0" y="460.0" class="xs" text-anchor="start" opacity="1" fill="var(--muted)">carries everything</text><line x1="430.0" y1="502.0" x2="430.0" y2="524.0" stroke="var(--faint)" stroke-width="2.4" stroke-linecap="round" opacity="1"/><path d="M430.0,524.0 L426.3,515.8 L433.7,515.8 Z" fill="var(--faint)" stroke="none" stroke-width="1.5" stroke-linecap="round" stroke-linejoin="round" opacity="1"/><rect x="80.0" y="524.0" width="700.0" height="96.0" rx="10" fill="var(--resonance)" stroke="none" stroke-width="1.5" opacity="0.1" /><rect x="80.0" y="524.0" width="700.0" height="96.0" rx="10" fill="none" stroke="var(--resonance)" stroke-width="1.8" opacity="1" /><text x="108.0" y="562.0" class="xs" text-anchor="start" opacity="1" fill="var(--resonance)" font-weight="700">REGIME D</text><text x="108.0" y="590.0" class="t sm" text-anchor="start" opacity="1" >thickened tips</text><polygon points="620.0,598.0 597.5,585.0 597.5,559.0 620.0,546.0 642.5,559.0 642.5,585.0" fill="var(--resonance)" stroke="var(--resonance)" stroke-width="2" stroke-linejoin="round" opacity="0.3"/><rect x="612.0" y="538.0" width="16.0" height="68.0" rx="3" fill="var(--resonance)" stroke="var(--resonance)" stroke-width="1.6" opacity="0.3" /><line x1="620.0" y1="598.0" x2="620.0" y2="620.0" stroke="var(--resonance)" stroke-width="2.4" stroke-linecap="round" opacity="1"/><line x1="597.5" y1="585.0" x2="578.4" y2="596.0" stroke="var(--resonance)" stroke-width="2.4" stroke-linecap="round" opacity="1"/><line x1="597.5" y1="559.0" x2="578.4" y2="548.0" stroke="var(--resonance)" stroke-width="2.4" stroke-linecap="round" opacity="1"/><line x1="620.0" y1="546.0" x2="620.0" y2="524.0" stroke="var(--resonance)" stroke-width="2.4" stroke-linecap="round" opacity="1"/><line x1="642.5" y1="559.0" x2="661.6" y2="548.0" stroke="var(--resonance)" stroke-width="2.4" stroke-linecap="round" opacity="1"/><line x1="642.5" y1="585.0" x2="661.6" y2="596.0" stroke="var(--resonance)" stroke-width="2.4" stroke-linecap="round" opacity="1"/><circle cx="620.0" cy="620.0" r="5.0" fill="var(--resonance)" stroke="none" stroke-width="1.5" opacity="0.9"/><circle cx="578.4" cy="596.0" r="5.0" fill="var(--resonance)" stroke="none" stroke-width="1.5" opacity="0.9"/><circle cx="578.4" cy="548.0" r="5.0" fill="var(--resonance)" stroke="none" stroke-width="1.5" opacity="0.9"/><circle cx="620.0" cy="524.0" r="5.0" fill="var(--resonance)" stroke="none" stroke-width="1.5" opacity="0.9"/><circle cx="661.6" cy="548.0" r="5.0" fill="var(--resonance)" stroke="none" stroke-width="1.5" opacity="0.9"/><circle cx="661.6" cy="596.0" r="5.0" fill="var(--resonance)" stroke="none" stroke-width="1.5" opacity="0.9"/><text x="700.0" y="578.0" class="xs" text-anchor="start" opacity="1" fill="var(--muted)">carries everything</text><rect x="830.0" y="170.0" width="330.0" height="452.0" rx="12" fill="var(--panel)" stroke="var(--history)" stroke-width="2" opacity="1" /><text x="995.0" y="208.0" class="xs" text-anchor="middle" opacity="1" fill="var(--history)" font-weight="700">TWO SOURCES INTERACT</text><text x="862.0" y="258.0" class="t lbl" text-anchor="start" opacity="1" >1 ·  the environment</text><text x="862.0" y="284.0" class="m sm" text-anchor="start" opacity="1" >the crystal is currently in</text><text x="862.0" y="334.0" class="t lbl" text-anchor="start" opacity="1" >2 ·  the accumulated</text><text x="862.0" y="360.0" class="m sm" text-anchor="start" opacity="1" >structure the crystal is</text><line x1="862.0" y1="400.0" x2="1130.0" y2="400.0" stroke="var(--stroke)" stroke-width="1.4" stroke-linecap="round" opacity="1"/><text x="862.0" y="436.0" class="m sm" text-anchor="start" opacity="1" >The same shift acts</text><text x="862.0" y="460.0" class="m sm" text-anchor="start" opacity="1" >differently on a plate than</text><text x="862.0" y="484.0" class="m sm" text-anchor="start" opacity="1" >on a branched dendrite.</text><text x="995.0" y="548.0" class="xs" text-anchor="middle" opacity="1" fill="var(--history)">history is a live variable</text><text x="620.0" y="674.0" class="m cap" text-anchor="middle" opacity="1" >The structure built under the previous regime persists into the next one.</text></svg>